<svg width="29" height="33" viewBox="0 0 29 33" fill="none" xmlns="http://www.w3.org/2000/svg">
<path d="M9.4375 13.1546L11.6193 15.3173C12.2783 15.9705 12.2783 17.0296 11.6193 17.6828L9.4375 19.8455M11.125 16.5L1 16.5M28 24.8636V8.13639M7.75 24.8636C7.75 26.7113 9.26104 28.2091 11.125 28.2091H17.875M7.75 8.13639C7.75 6.28875 9.26104 4.79094 11.125 4.79094H17.875M26.4971 29.2022L23.1221 31.4325C20.8792 32.9147 17.875 31.3209 17.875 28.6489V4.35107C17.875 1.67908 20.8792 0.0853371 23.1221 1.56749L26.4971 3.79779C27.436 4.41826 28 5.46281 28 6.58137V26.4186C28 27.5372 27.436 28.5817 26.4971 29.2022Z" stroke="#28303F" stroke-width="1.5" stroke-linecap="round"/>
</svg>
