<svg width="32" height="32" viewBox="0 0 32 32" fill="none" xmlns="http://www.w3.org/2000/svg">
<path d="M13.0492 2.90712C14.2562 0.364297 17.7437 0.364292 18.9508 2.90711L21.0368 7.30177C21.5161 8.31152 22.4427 9.0114 23.5144 9.17333L28.179 9.87804C30.878 10.2858 31.9557 13.7343 30.0027 15.7136L26.6274 19.1344C25.8518 19.9204 25.4979 21.0528 25.681 22.1626L26.4778 26.9928C26.9389 29.7877 24.1174 31.919 21.7034 30.5994L17.5312 28.3189C16.5726 27.7949 15.4274 27.7949 14.4688 28.3189L10.2966 30.5994C7.88259 31.919 5.06113 29.7877 5.52218 26.9928L6.31898 22.1626C6.50206 21.0528 6.14817 19.9204 5.37262 19.1344L1.99731 15.7136C0.0442991 13.7343 1.12199 10.2858 3.82099 9.87804L8.48556 9.17333C9.55733 9.0114 10.4838 8.31152 10.9632 7.30177L13.0492 2.90712Z" fill="#FBFF49" stroke="black" stroke-linejoin="round"/>
</svg>
