<svg width="51" height="25" viewBox="0 0 51 25" fill="none" xmlns="http://www.w3.org/2000/svg">
<path d="M16.4062 17.0625C16.4062 18.3021 16.0938 19.4792 15.4688 20.5938C14.8438 21.6979 13.8698 22.5938 12.5469 23.2812C11.2344 23.9688 9.53646 24.3125 7.45312 24.3125C6.41146 24.3125 5.49479 24.2656 4.70312 24.1719C3.92188 24.0781 3.19271 23.9271 2.51562 23.7188C1.83854 23.5 1.13542 23.2188 0.40625 22.875V17.375C1.64583 18 2.89583 18.4792 4.15625 18.8125C5.41667 19.1354 6.55729 19.2969 7.57812 19.2969C8.19271 19.2969 8.69271 19.224 9.07812 19.0781C9.47396 18.9323 9.76562 18.7344 9.95312 18.4844C10.1406 18.224 10.2344 17.9271 10.2344 17.5938C10.2344 17.1979 10.0938 16.8646 9.8125 16.5938C9.54167 16.3125 9.10417 16.0208 8.5 15.7188C7.89583 15.4167 7.09896 15.0417 6.10938 14.5938C5.26562 14.1979 4.5 13.7917 3.8125 13.375C3.13542 12.9583 2.55208 12.4844 2.0625 11.9531C1.58333 11.4115 1.21354 10.7812 0.953125 10.0625C0.692708 9.34375 0.5625 8.49479 0.5625 7.51562C0.5625 6.04688 0.921875 4.81771 1.64062 3.82812C2.36979 2.82812 3.38021 2.07812 4.67188 1.57812C5.97396 1.07812 7.47396 0.828125 9.17188 0.828125C10.6615 0.828125 12 0.994792 13.1875 1.32812C14.3854 1.66146 15.4583 2.04167 16.4062 2.46875L14.5156 7.23438C13.5365 6.78646 12.5729 6.43229 11.625 6.17188C10.6771 5.90104 9.79688 5.76562 8.98438 5.76562C8.45312 5.76562 8.01562 5.83333 7.67188 5.96875C7.33854 6.09375 7.08854 6.26562 6.92188 6.48438C6.76562 6.70312 6.6875 6.95312 6.6875 7.23438C6.6875 7.58854 6.82292 7.90625 7.09375 8.1875C7.375 8.46875 7.83854 8.77604 8.48438 9.10938C9.14062 9.43229 10.0312 9.85417 11.1562 10.375C12.2708 10.875 13.2188 11.4167 14 12C14.7812 12.5729 15.375 13.2656 15.7812 14.0781C16.1979 14.8802 16.4062 15.875 16.4062 17.0625ZM50.2344 1.15625L44.6094 24H37.3125L35.125 14.0469C35.0833 13.8594 35.0156 13.5417 34.9219 13.0938C34.8385 12.6458 34.7396 12.1354 34.625 11.5625C34.5208 10.9896 34.4219 10.4271 34.3281 9.875C34.2448 9.3125 34.1823 8.83854 34.1406 8.45312C34.099 8.83854 34.0312 9.3125 33.9375 9.875C33.8438 10.4271 33.7396 10.9896 33.625 11.5625C33.5208 12.1354 33.4167 12.6458 33.3125 13.0938C33.2188 13.5417 33.151 13.8594 33.1094 14.0469L30.9062 24H23.6094L17.9531 1.15625H23.9062L26.3906 12.6094C26.4531 12.8906 26.5365 13.2917 26.6406 13.8125C26.7552 14.3229 26.8698 14.8854 26.9844 15.5C27.1094 16.1042 27.224 16.6875 27.3281 17.25C27.4323 17.8125 27.5052 18.2812 27.5469 18.6562C27.6302 18.0104 27.7396 17.276 27.875 16.4531C28.0208 15.6302 28.1771 14.7969 28.3438 13.9531C28.5208 13.099 28.6875 12.3073 28.8438 11.5781C29 10.849 29.1354 10.2552 29.25 9.79688L31.2656 1.15625H36.9844L38.9375 9.79688C39.0417 10.2448 39.1719 10.8385 39.3281 11.5781C39.4948 12.3073 39.6615 13.099 39.8281 13.9531C40.0052 14.8073 40.1667 15.651 40.3125 16.4844C40.4583 17.3073 40.5677 18.0312 40.6406 18.6562C40.7031 18.1354 40.8073 17.4792 40.9531 16.6875C41.099 15.8854 41.2448 15.1094 41.3906 14.3594C41.5469 13.599 41.6667 13.026 41.75 12.6406L44.2812 1.15625H50.2344Z" fill="white"/>
</svg>
