<svg width="31" height="31" viewBox="0 0 31 31" fill="none" xmlns="http://www.w3.org/2000/svg">
<g clip-path="url(#clip0_381_19)">
<rect x="0.5" y="0.5" width="30" height="30" rx="6" fill="white"/>
<path d="M11.7064 22.6687C11.5772 22.6687 11.4588 22.6472 11.3512 22.6041C11.2435 22.561 11.1359 22.4857 11.0282 22.3781L5.18345 16.5333C4.9897 16.3395 4.89282 16.1027 4.89282 15.8229C4.89282 15.543 4.9897 15.3062 5.18345 15.1124C5.3772 14.9187 5.60324 14.8218 5.86157 14.8218C6.11991 14.8218 6.34595 14.9187 6.5397 15.1124L11.7064 20.2791L23.4282 8.55723C23.622 8.36348 23.8534 8.2666 24.1225 8.2666C24.3916 8.2666 24.623 8.36348 24.8168 8.55723C25.0105 8.75098 25.1074 8.9824 25.1074 9.2515C25.1074 9.52059 25.0105 9.75202 24.8168 9.94577L12.3845 22.3781C12.2769 22.4857 12.1692 22.561 12.0616 22.6041C11.9539 22.6472 11.8355 22.6687 11.7064 22.6687Z" fill="#03606B"/>
</g>
<defs>
<clipPath id="clip0_381_19">
<rect x="0.5" y="0.5" width="30" height="30" rx="6" fill="white"/>
</clipPath>
</defs>
</svg>
