<svg width="29" height="33" viewBox="0 0 29 33" fill="none" xmlns="http://www.w3.org/2000/svg">
<path d="M21.4643 7.88889C21.4643 11.2018 18.4283 14.0278 14.5 14.0278V15.5278C19.0926 15.5278 22.9643 12.1853 22.9643 7.88889H21.4643ZM14.5 14.0278C10.5717 14.0278 7.53571 11.2018 7.53571 7.88889H6.03571C6.03571 12.1853 9.90736 15.5278 14.5 15.5278V14.0278ZM7.53571 7.88889C7.53571 4.57603 10.5717 1.75 14.5 1.75V0.25C9.90736 0.25 6.03571 3.59249 6.03571 7.88889H7.53571ZM14.5 1.75C18.4283 1.75 21.4643 4.57603 21.4643 7.88889H22.9643C22.9643 3.59249 19.0926 0.25 14.5 0.25V1.75ZM27.25 25.9722C27.25 26.5616 26.9856 27.1789 26.3946 27.8027C25.7999 28.4305 24.9042 29.0299 23.7402 29.5497C21.4139 30.5883 18.1477 31.25 14.5 31.25V32.75C18.3082 32.75 21.7919 32.0623 24.3517 30.9193C25.6307 30.3483 26.712 29.6488 27.4836 28.8343C28.2589 28.0158 28.75 27.0473 28.75 25.9722H27.25ZM14.5 31.25C10.8523 31.25 7.58607 30.5883 5.25984 29.5497C4.09583 29.0299 3.20008 28.4305 2.60538 27.8027C2.01442 27.1789 1.75 26.5616 1.75 25.9722H0.25C0.25 27.0473 0.741099 28.0158 1.51641 28.8343C2.28799 29.6488 3.36927 30.3483 4.64828 30.9193C7.20809 32.0623 10.6918 32.75 14.5 32.75V31.25ZM1.75 25.9722C1.75 25.3828 2.01442 24.7656 2.60538 24.1417C3.20008 23.5139 4.09583 22.9145 5.25984 22.3948C7.58607 21.3561 10.8523 20.6944 14.5 20.6944V19.1944C10.6918 19.1944 7.20809 19.8821 4.64828 21.0251C3.36927 21.5962 2.28799 22.2956 1.51641 23.1102C0.741099 23.9286 0.25 24.8971 0.25 25.9722H1.75ZM14.5 20.6944C18.1477 20.6944 21.4139 21.3561 23.7402 22.3948C24.9042 22.9145 25.7999 23.5139 26.3946 24.1417C26.9856 24.7656 27.25 25.3828 27.25 25.9722H28.75C28.75 24.8971 28.2589 23.9286 27.4836 23.1102C26.712 22.2956 25.6307 21.5962 24.3517 21.0251C21.7919 19.8821 18.3082 19.1944 14.5 19.1944V20.6944Z" fill="#28303F"/>
</svg>
