<svg width="141" height="67" viewBox="0 0 141 67" fill="none" xmlns="http://www.w3.org/2000/svg">
<path d="M45.2256 46.4883C45.2256 49.9746 44.3467 53.2852 42.5889 56.4199C40.8311 59.5254 38.0918 62.0449 34.3711 63.9785C30.6797 65.9121 25.9043 66.8789 20.0449 66.8789C17.1152 66.8789 14.5371 66.7471 12.3105 66.4834C10.1133 66.2197 8.0625 65.7949 6.1582 65.209C4.25391 64.5938 2.27637 63.8027 0.225586 62.8359V47.3672C3.71191 49.125 7.22754 50.4727 10.7725 51.4102C14.3174 52.3184 17.5254 52.7725 20.3965 52.7725C22.125 52.7725 23.5312 52.5674 24.6152 52.1572C25.7285 51.7471 26.5488 51.1904 27.0762 50.4873C27.6035 49.7549 27.8672 48.9199 27.8672 47.9824C27.8672 46.8691 27.4717 45.9316 26.6807 45.1699C25.9189 44.3789 24.6885 43.5586 22.9893 42.709C21.29 41.8594 19.0488 40.8047 16.2656 39.5449C13.8926 38.4316 11.7393 37.2891 9.80566 36.1172C7.90137 34.9453 6.26074 33.6123 4.88379 32.1182C3.53613 30.5947 2.49609 28.8223 1.76367 26.8008C1.03125 24.7793 0.665039 22.3916 0.665039 19.6377C0.665039 15.5068 1.67578 12.0498 3.69727 9.2666C5.74805 6.4541 8.58984 4.34473 12.2227 2.93848C15.8848 1.53223 20.1035 0.829102 24.8789 0.829102C29.0684 0.829102 32.833 1.29785 36.1729 2.23535C39.542 3.17285 42.5596 4.24219 45.2256 5.44336L39.9082 18.8467C37.1543 17.5869 34.4443 16.5908 31.7783 15.8584C29.1123 15.0967 26.6367 14.7158 24.3516 14.7158C22.8574 14.7158 21.627 14.9062 20.6602 15.2871C19.7227 15.6387 19.0195 16.1221 18.5508 16.7373C18.1113 17.3525 17.8916 18.0557 17.8916 18.8467C17.8916 19.8428 18.2725 20.7363 19.0342 21.5273C19.8252 22.3184 21.1289 23.1826 22.9453 24.1201C24.791 25.0283 27.2959 26.2148 30.46 27.6797C33.5947 29.0859 36.2607 30.6094 38.458 32.25C40.6553 33.8613 42.3252 35.8096 43.4678 38.0947C44.6396 40.3506 45.2256 43.1484 45.2256 46.4883ZM140.367 1.75195L124.547 66H104.024L97.8721 38.0068C97.7549 37.4795 97.5645 36.5859 97.3008 35.3262C97.0664 34.0664 96.7881 32.6309 96.4658 31.0195C96.1729 29.4082 95.8945 27.8262 95.6309 26.2734C95.3965 24.6914 95.2207 23.3584 95.1035 22.2744C94.9863 23.3584 94.7959 24.6914 94.5322 26.2734C94.2686 27.8262 93.9756 29.4082 93.6533 31.0195C93.3604 32.6309 93.0674 34.0664 92.7744 35.3262C92.5107 36.5859 92.3203 37.4795 92.2031 38.0068L86.0068 66H65.4844L49.5762 1.75195H66.3193L73.3066 33.9639C73.4824 34.7549 73.7168 35.8828 74.0098 37.3477C74.332 38.7832 74.6543 40.3652 74.9766 42.0938C75.3281 43.793 75.6504 45.4336 75.9434 47.0156C76.2363 48.5977 76.4414 49.916 76.5586 50.9707C76.793 49.1543 77.1006 47.0889 77.4814 44.7744C77.8916 42.46 78.3311 40.1162 78.7998 37.7432C79.2979 35.3408 79.7666 33.1143 80.2061 31.0635C80.6455 29.0127 81.0264 27.3428 81.3486 26.0537L87.0176 1.75195H103.102L108.595 26.0537C108.888 27.3135 109.254 28.9834 109.693 31.0635C110.162 33.1143 110.631 35.3408 111.1 37.7432C111.598 40.1455 112.052 42.5186 112.462 44.8623C112.872 47.1768 113.18 49.2129 113.385 50.9707C113.561 49.5059 113.854 47.6602 114.264 45.4336C114.674 43.1777 115.084 40.9951 115.494 38.8857C115.934 36.7471 116.271 35.1357 116.505 34.0518L123.624 1.75195H140.367Z" fill="#191919"/>
</svg>
