<svg width="32" height="31" viewBox="0 0 32 31" fill="none" xmlns="http://www.w3.org/2000/svg">
<path d="M13.0492 2.84355C14.2562 0.385487 17.7438 0.385483 18.9508 2.84354L21.0368 7.09171C21.5162 8.06781 22.4427 8.74436 23.5144 8.90088L28.179 9.58211C30.878 9.97627 31.9557 13.3098 30.0027 15.2232L26.6274 18.5299C25.8518 19.2897 25.4979 20.3844 25.681 21.4572L26.4778 26.1264C26.9389 28.8281 24.1174 30.8883 21.7034 29.6128L17.5312 27.4083C16.5726 26.9018 15.4274 26.9018 14.4688 27.4083L10.2966 29.6128C7.88259 30.8883 5.06113 28.8281 5.52218 26.1264L6.31898 21.4572C6.50206 20.3844 6.14817 19.2897 5.37262 18.5299L1.99731 15.2232C0.0442991 13.3098 1.12199 9.97627 3.82099 9.58211L8.48556 8.90088C9.55733 8.74436 10.4838 8.06781 10.9632 7.09171L13.0492 2.84355Z" fill="white" stroke="black" stroke-linejoin="round"/>
</svg>
